<?xml version="1.0" encoding="UTF-8"?>
<svg id="Layer_2" data-name="Layer 2" xmlns="http://www.w3.org/2000/svg" viewBox="0 0 295.98 84.02">
  <defs>
    <style>
      .cls-1 {
        fill: none;
        stroke: #000;
        stroke-miterlimit: 10;
        stroke-width: 4px;
      }
    </style>
  </defs>
  <g id="Layer_1-2" data-name="Layer 1">
    <path class="cls-1" d="M.48,76.75c6.5-1.6,15.99-4.67,26.31-11,7.48-4.59,13.63-10.03,14.78-11.04,5.95-5.24,5.96-6.34,10.62-9.96,4.16-3.23,9.99-7.65,18.15-9,4.35-.72,9.88-1.64,14.52,2,5.12,4.01,7.29,12.11,5.44,14-1.78,1.83-6.78-2.71-8.17-1-1.21,1.49.84,7.02,4.54,9,3.24,1.74,7,.05,9.07-1,14.4-7.28,37.84-29.23,55.35-41,11.37-7.64,21.57-11.89,31.76-14,8.58-1.77,19.65-3.88,29.04,3,6.17,4.52,8.46,12.5,9.98,17,1.13,3.35,1.61,6.09.91,9-.24,1.01-1.01,4.02-3.63,6-1.98,1.5-5.4,2.7-8.17,1-3.16-1.93-4.65-7.11-2.72-12-1.89.88-5.93,3.11-9.07,8-2.87,4.46-3.48,8.8-3.63,10-.61,5.02.55,8.88.91,10,.27.82,2.66,7.9,8.17,11,6.07,3.41,13.01.21,21.78-4,9.61-4.61,11.14-7.74,23.59-14,9.5-4.78,13.04-5.17,16.33-4,3.82,1.36,8.42,5.21,9.07,11,.52,4.65-1.54,10.18-5.44,12-2.51,1.18-6.12.97-7.26-1-1.29-2.22,1.02-5.94.91-6-.16-.08-5.51,6.9-3.63,13,1.93,6.27,10.33,7.74,11.8,8,11.72,2.05,21.11-8.23,22.69-10"/>
  </g>
</svg>